<svg width="90" height="91" viewBox="0 0 90 91" fill="none" xmlns="http://www.w3.org/2000/svg">
<g clip-path="url(#clip0_501_479)">
<path d="M62.2038 49.4025L78.0599 62.501C82.5464 66.2083 82.9781 72.9103 79.0055 77.1578C75.0159 81.425 68.235 81.4476 64.2142 77.2086L50.1129 62.3455L46.6572 82.6211C45.6832 88.3334 40.0779 92.0463 34.413 90.7314C28.748 89.4165 25.3661 83.6194 27.0273 78.0683L32.9222 58.3582L13.6785 65.4872C8.1896 67.5205 2.11861 64.5145 0.431907 58.9323C-1.24912 53.3728 2.11293 47.5502 7.78354 46.2014L27.8195 41.428L11.9378 28.3096C7.46835 24.6193 7.05093 17.9399 11.0263 13.7264C14.996 9.51857 21.7059 9.50725 25.687 13.7038L39.8678 28.6518L43.3235 8.37612C44.2975 2.66387 49.9028 -1.04908 55.5677 0.265863C61.2327 1.58081 64.6146 7.37789 62.9534 12.9289L57.0585 32.639L76.413 25.4704C81.8479 23.457 87.8621 26.4178 89.5545 31.9405C91.2497 37.469 87.9132 43.2774 82.2653 44.6234L62.1981 49.4025H62.2038Z" fill="white"/>
</g>
<defs>
<clipPath id="clip0_501_479">
<rect width="90" height="91" fill="white"/>
</clipPath>
</defs>
</svg>
