<svg width="367" height="170" viewBox="0 0 367 170" fill="none" xmlns="http://www.w3.org/2000/svg">
<g clip-path="url(#clip0_501_486)">
<path d="M78.4657 64.7129C112.163 61.9455 110.703 44.2416 144.407 41.4742C178.104 38.7129 179.564 56.4168 213.267 53.6555C246.97 50.8881 245.511 33.1842 279.208 30.4168C312.911 27.6494 312.693 38.4349 346.251 42.5558C350.939 43.1298 354.088 41.7703 355.82 42.9425L358.346 42.737L355.875 12.7673L353.349 12.9727C351.617 11.8005 348.462 13.16 343.78 12.586C310.216 8.46514 310.44 -2.32036 276.737 0.447013C243.034 3.20834 244.493 20.9183 210.796 23.6857C177.099 26.447 175.639 8.74309 141.936 11.5044C108.232 14.2718 109.698 31.9757 75.9947 34.7431C42.2974 37.5105 40.8379 19.8005 7.13453 22.5679C4.54848 22.7793 2.19864 23.0875 -0.00585938 23.4621L2.99807 53.3413C5.0451 53.0089 7.23143 52.731 9.6055 52.5376C43.3028 49.7703 44.7624 67.4802 78.4596 64.7189L78.4657 64.7129Z" fill="white"/>
<path d="M82.8024 117.323C116.5 114.562 115.04 96.8519 148.743 94.0846C182.441 91.3232 183.9 109.027 217.604 106.266C251.307 103.498 249.841 85.7945 283.545 83.0272C317.248 80.2598 317.024 91.0453 350.588 95.1661C355.276 95.7401 358.425 94.3806 360.157 95.5528L362.682 95.3474L360.211 65.3776L357.686 65.583C355.954 64.4108 352.805 65.7704 348.117 65.1963C314.553 61.0755 314.771 50.29 281.074 53.0574C247.37 55.8247 248.83 73.5287 215.133 76.296C181.435 79.0634 179.976 61.3534 146.272 64.1148C112.575 66.8821 114.035 84.5861 80.3314 87.3534C46.6341 90.1208 45.1745 72.4108 11.4712 75.1722C9.25458 75.3534 7.20149 75.6072 5.26953 75.9093L8.27346 105.801C10.048 105.535 11.9315 105.311 13.9422 105.148C47.6394 102.381 49.099 120.091 82.7963 117.329L82.8024 117.323Z" fill="white"/>
<path d="M364.536 117.758L362.01 117.964C360.278 116.791 357.123 118.151 352.441 117.577C318.877 113.456 319.101 102.671 285.398 105.438C251.695 108.205 253.16 125.909 219.457 128.677C185.76 131.444 184.3 113.734 150.597 116.501C116.893 119.263 118.359 136.973 84.6555 139.74C50.9583 142.507 49.4987 124.797 15.7954 127.559C13.93 127.71 12.1858 127.915 10.5264 128.157L13.5303 158.054C15.0323 157.849 16.5948 157.668 18.2663 157.529C51.9636 154.761 53.4232 172.471 87.1265 169.71C120.824 166.943 119.364 149.239 153.068 146.471C186.765 143.704 188.224 161.414 221.928 158.652C255.631 155.885 254.172 138.181 287.869 135.414C321.572 132.646 321.354 143.432 354.912 147.553C359.6 148.127 362.749 146.767 364.481 147.939L367.007 147.734L364.536 117.764V117.758Z" fill="white"/>
</g>
<defs>
<clipPath id="clip0_501_486">
<rect width="367" height="170" fill="white"/>
</clipPath>
</defs>
</svg>
