<svg width="1319" height="291" viewBox="0 0 1319 291" fill="none" xmlns="http://www.w3.org/2000/svg">
<path d="M1224.92 251.611C1207.61 251.611 1191.98 248.583 1178.03 242.526C1164.19 236.361 1152.78 227.6 1143.8 216.244C1134.93 204.779 1129.31 191.151 1126.93 175.36L1173 168.546C1176.25 181.958 1182.95 192.287 1193.12 199.533C1203.29 206.78 1214.86 210.403 1227.84 210.403C1235.08 210.403 1242.11 209.268 1248.93 206.996C1255.74 204.725 1261.31 201.372 1265.64 196.938C1270.07 192.503 1272.29 187.041 1272.29 180.552C1272.29 178.172 1271.91 175.901 1271.15 173.738C1270.51 171.467 1269.37 169.358 1267.75 167.411C1266.13 165.464 1263.8 163.625 1260.77 161.895C1257.85 160.164 1254.12 158.596 1249.58 157.19L1188.9 139.344C1184.36 138.046 1179.06 136.208 1173 133.828C1167.05 131.449 1161.27 128.042 1155.64 123.607C1150.02 119.173 1145.31 113.332 1141.53 106.086C1137.85 98.7312 1136.01 89.4838 1136.01 78.3437C1136.01 62.6609 1139.96 49.628 1147.86 39.245C1155.75 28.8619 1166.3 21.1287 1179.49 16.0453C1192.69 10.9619 1207.29 8.47432 1223.3 8.58248C1239.41 8.79879 1253.8 11.5568 1266.45 16.8565C1279.1 22.1562 1289.7 29.8894 1298.25 40.0561C1306.79 50.1147 1312.96 62.4446 1316.74 77.0458L1269.05 85.1576C1267.32 77.5866 1264.12 71.2053 1259.47 66.0138C1254.82 60.8223 1249.25 56.8745 1242.76 54.1706C1236.38 51.4667 1229.68 50.0066 1222.65 49.7902C1215.72 49.5739 1209.18 50.5473 1203.02 52.7105C1196.96 54.7655 1191.98 57.7939 1188.09 61.7957C1184.3 65.7975 1182.41 70.5564 1182.41 76.0724C1182.41 81.1558 1183.98 85.3198 1187.12 88.5645C1190.25 91.701 1194.2 94.2427 1198.96 96.1896C1203.72 98.1364 1208.59 99.7587 1213.56 101.057L1254.12 112.089C1260.18 113.711 1266.88 115.874 1274.24 118.578C1281.59 121.174 1288.62 124.851 1295.33 129.61C1302.14 134.261 1307.71 140.426 1312.04 148.105C1316.47 155.784 1318.69 165.518 1318.69 177.307C1318.69 189.853 1316.04 200.831 1310.74 210.241C1305.55 219.542 1298.52 227.276 1289.65 233.441C1280.78 239.497 1270.72 244.04 1259.47 247.068C1248.33 250.097 1236.82 251.611 1224.92 251.611Z" fill="white"/>
<path d="M930.064 246.744V13.1249H1023.51C1040.17 13.1249 1053.63 16.4777 1063.91 23.1835C1074.18 29.781 1081.7 38.1091 1086.46 48.1677C1091.22 58.2263 1093.6 68.3931 1093.6 78.668C1093.6 91.7549 1090.62 102.625 1084.67 111.277C1078.83 119.93 1070.78 125.716 1060.5 128.636V120.525C1075.1 123.553 1086.03 130.313 1093.27 140.804C1100.63 151.295 1104.31 163.03 1104.31 176.009C1104.31 189.961 1101.71 202.237 1096.52 212.837C1091.43 223.436 1083.65 231.764 1073.16 237.821C1062.66 243.769 1049.47 246.744 1033.57 246.744H930.064ZM974.841 205.211H1029.03C1034.98 205.211 1040.28 203.968 1044.93 201.48C1049.58 198.884 1053.2 195.315 1055.8 190.773C1058.5 186.122 1059.85 180.66 1059.85 174.387C1059.85 168.871 1058.72 163.95 1056.45 159.623C1054.17 155.297 1050.71 151.89 1046.06 149.403C1041.52 146.807 1035.84 145.509 1029.03 145.509H974.841V205.211ZM974.841 104.301H1022.86C1027.84 104.301 1032.27 103.436 1036.17 101.705C1040.06 99.9749 1043.14 97.325 1045.41 93.7558C1047.69 90.0785 1048.82 85.3737 1048.82 79.6413C1048.82 72.503 1046.6 66.5003 1042.17 61.6332C1037.73 56.7662 1031.3 54.3326 1022.86 54.3326H974.841V104.301Z" fill="white"/>
<path d="M692.352 246.744L763.735 13.1249H829.603L900.986 246.744H855.56L791.964 40.7049H800.4L737.777 246.744H692.352ZM735.182 198.073V156.865H858.481V198.073H735.182Z" fill="white"/>
<path d="M536.276 246.744V13.1249H580.404V205.536H680.99V246.744H536.276Z" fill="white"/>
<path d="M237.712 246.744V13.1249H313.314C315.152 13.1249 318.938 13.179 324.67 13.2871C330.402 13.3953 335.918 13.7738 341.218 14.4228C360.037 16.6941 375.99 23.2375 389.077 34.0532C402.164 44.8689 412.115 58.6048 418.929 75.261C425.743 91.9172 429.15 110.142 429.15 129.934C429.15 149.727 425.743 167.951 418.929 184.608C412.115 201.264 402.164 215 389.077 225.815C375.99 236.631 360.037 243.175 341.218 245.446C335.918 246.095 330.402 246.473 324.67 246.582C318.938 246.69 315.152 246.744 313.314 246.744H237.712ZM282.489 205.211H313.314C316.234 205.211 320.182 205.157 325.157 205.049C330.132 204.833 334.62 204.346 338.622 203.589C348.789 201.534 357.063 196.775 363.444 189.312C369.934 181.85 374.693 172.873 377.721 162.381C380.858 151.89 382.426 141.074 382.426 129.934C382.426 118.253 380.803 107.167 377.559 96.6761C374.422 86.1848 369.609 77.316 363.12 70.0695C356.63 62.823 348.465 58.2263 338.622 56.2795C334.62 55.4142 330.132 54.9275 325.157 54.8194C320.182 54.7112 316.234 54.6571 313.314 54.6571H282.489V205.211Z" fill="white"/>
<path d="M0 246.744L71.3835 13.1249H137.251L208.635 246.744H163.209L99.6125 40.7049H108.049L45.4259 246.744H0ZM42.8301 198.073V156.865H166.129V198.073H42.8301Z" fill="white"/>
<path d="M494.59 101.401V23.4191C494.59 14.5726 482.425 7.38953 467.407 7.38953C452.389 7.38953 440.225 14.5597 440.225 23.4191V101.401C440.225 101.401 394.202 212.048 389.838 221.926C386.622 229.199 382.503 235.144 382.503 241.966C382.503 259.943 416.413 287.411 467.407 287.411C518.402 287.411 553.332 261.878 553.332 243.643C553.332 236.395 549.471 224.466 545.713 216.703C541.387 207.792 494.59 101.401 494.59 101.401Z" fill="#E2DBD5"/>
<path d="M467.406 290.249C443.969 290.249 421.565 284.42 404.338 273.845C389.114 264.495 379.661 252.283 379.661 241.953C379.661 236.215 382.115 231.275 384.723 226.04C385.562 224.337 386.441 222.584 387.241 220.765C391.386 211.364 433.948 109.087 437.383 100.82V23.4191C437.383 12.8444 450.568 4.55237 467.406 4.55237C484.245 4.55237 497.43 12.8444 497.43 23.4191V100.807C501.058 109.061 544.175 207.031 548.269 215.465C552.195 223.564 556.172 235.841 556.172 243.643C556.172 265.205 517.393 290.261 467.406 290.261V290.249ZM467.406 10.2266C454.209 10.2266 443.065 16.2619 443.065 23.4062V101.955L442.845 102.484C440.96 106.998 396.758 213.273 392.432 223.061C391.58 224.995 390.676 226.813 389.798 228.567C387.396 233.39 385.33 237.543 385.33 241.953C385.33 256.977 416.49 284.561 467.394 284.561C518.297 284.561 550.477 259.93 550.477 243.63C550.477 236.756 546.694 225.266 543.142 217.928C538.842 209.069 493.891 106.881 491.98 102.523L491.735 101.981V23.4191C491.735 16.2748 480.591 10.2395 467.394 10.2395L467.406 10.2266Z" fill="white"/>
<path d="M467.406 44.0007C449.611 44.0007 435.665 34.9606 435.665 23.4188C435.665 11.877 449.611 2.83691 467.406 2.83691C485.2 2.83691 499.146 11.877 499.146 23.4188C499.146 34.9606 485.2 44.0007 467.406 44.0007ZM467.406 11.9543C454.066 11.9543 444.782 18.0025 444.782 23.4317C444.782 28.8609 454.079 34.9091 467.406 34.9091C480.732 34.9091 490.03 28.8609 490.03 23.4317C490.03 18.0025 480.745 11.9543 467.406 11.9543Z" fill="#E1DAD4"/>
<path d="M467.405 46.838C448.009 46.838 432.823 36.547 432.823 23.419C432.823 10.2909 448.009 0 467.405 0C486.8 0 501.986 10.2909 501.986 23.419C501.986 36.547 486.8 46.838 467.405 46.838ZM467.405 5.6871C451.47 5.6871 438.505 13.6439 438.505 23.419C438.505 33.1941 451.47 41.1509 467.405 41.1509C483.34 41.1509 496.305 33.1941 496.305 23.419C496.305 13.6439 483.34 5.6871 467.405 5.6871ZM467.405 37.7335C453.355 37.7335 441.94 31.3113 441.94 23.419C441.94 15.5267 453.368 9.10452 467.405 9.10452C481.441 9.10452 492.87 15.5267 492.87 23.419C492.87 31.3113 481.441 37.7335 467.405 37.7335ZM467.405 14.7916C454.608 14.7916 447.622 20.4916 447.622 23.419C447.622 26.3464 454.608 32.0464 467.405 32.0464C480.202 32.0464 487.188 26.3464 487.188 23.419C487.188 20.4916 480.202 14.7916 467.405 14.7916Z" fill="#0618DD"/>
<path d="M467.2 270.44C436.001 270.44 410.162 262.56 401.381 250.374C397.752 245.344 397.029 239.786 399.173 233.403L399.767 231.623C405.371 220.184 431.83 166.215 433.716 162.385C438.209 156.298 449.87 150.224 465.986 150.224C466.502 150.224 467.019 150.224 467.548 150.237C481.107 150.25 493.246 153.719 498.514 159.071C500.077 160.657 500.864 162.282 500.839 163.881V164.551L530.668 225.691L530.823 225.897C536.944 234.215 538.403 241.643 535.188 248.001C528.395 261.413 501.071 270.414 467.212 270.414L467.2 270.44Z" fill="#E41C1C"/>
<path d="M465.998 153.062C466.488 153.062 466.992 153.062 467.496 153.075H467.56H467.625C482.152 153.087 492.599 157.098 496.499 161.057C497.196 161.766 498.023 162.824 498.01 163.843L497.984 165.197L498.578 166.409L528.007 226.71L528.227 227.175L528.536 227.587C534.037 235.067 535.393 241.334 532.656 246.725C526.432 259.015 499.52 267.59 467.212 267.59C437.369 267.59 411.84 260.008 403.704 248.711C400.657 244.481 400.063 239.761 401.884 234.293L402.413 232.694C408.095 221.113 433.495 169.285 436.155 163.868C439.384 159.69 449.004 153.049 465.985 153.049M465.985 147.362C447.893 147.362 435.833 154.506 431.274 160.89L396.176 232.462H396.473C387.279 259.917 427.194 273.252 467.186 273.252C511.982 273.252 556.881 256.539 533.108 224.208L503.679 163.907C503.808 154.712 487.576 147.413 467.612 147.387C467.07 147.387 466.514 147.362 465.985 147.362Z" fill="#E41C1C"/>
</svg>
