<svg width="1048" height="787" viewBox="0 0 1048 787" fill="none" xmlns="http://www.w3.org/2000/svg">
<path d="M74.8721 30.75L58.1221 20.5L74.8721 10.25" stroke="#441414" stroke-width="3.43769" stroke-linecap="round" stroke-linejoin="round"/>
<path d="M456.7 33H452.231L447.796 17.0147H447.659V33H442.846V11.3425H450.959L454.775 25.8152H454.878L458.522 11.3425H466.463V33H461.238V17.0147H461.1L456.7 33ZM473.994 25.3683C473.994 27.9122 474.991 29.6654 477.191 29.6654C479.357 29.6654 480.422 27.9122 480.422 25.3683C480.422 22.8244 479.357 21.0712 477.191 21.0712C474.991 21.0712 473.994 22.8244 473.994 25.3683ZM485.441 25.3683C485.441 30.1123 482.072 33.4125 477.191 33.4125C472.309 33.4125 468.975 30.1123 468.975 25.3683C468.975 20.6587 472.309 17.3241 477.191 17.3241C482.072 17.3241 485.441 20.6587 485.441 25.3683ZM492.779 25.2308V33H487.828V17.7366H492.779V20.1087C493.604 18.4242 495.46 17.3241 497.763 17.3241C501.889 17.3241 503.264 20.1774 503.264 23.4432V33H498.313V24.6464C498.313 22.4463 497.591 21.2431 495.769 21.2431C493.776 21.2431 492.779 22.8244 492.779 25.2308ZM506.876 28.9091V21.2087H504.745V18.1835L505.845 18.0117C507.357 17.7366 507.804 16.946 508.182 15.5365L508.698 13.5083H511.758V17.7366H515.814V21.2087H511.758V27.5684C511.758 28.8748 512.376 29.4248 513.545 29.4248C514.302 29.4248 515.092 29.2185 516.02 28.806V32.0718C514.886 32.9312 513.58 33.4125 511.586 33.4125C509.111 33.4125 506.876 32.3468 506.876 28.9091ZM523.194 25.2308V33H518.244V11.3425H523.194V20.1087C524.019 18.4242 525.876 17.3241 528.179 17.3241C532.304 17.3241 533.679 20.1774 533.679 23.4432V33H528.729V24.6464C528.729 22.4463 528.007 21.2431 526.185 21.2431C524.191 21.2431 523.194 22.8244 523.194 25.2308ZM550.207 38.5691H545.325L547.56 33.1375L541.303 17.7366H546.528L550.207 27.2591H550.344L554.091 17.7366H558.973L550.207 38.5691ZM571.039 27.6028L575.027 27.981C574.236 31.453 571.52 33.4125 567.533 33.4125C562.685 33.4125 559.248 30.4561 559.248 25.609C559.248 20.7962 562.754 17.3241 567.429 17.3241C572.483 17.3241 575.13 20.7962 575.13 24.9558V26.4684H564.129C564.267 28.4966 565.779 29.6654 567.705 29.6654C569.423 29.6654 570.489 29.0123 571.039 27.6028ZM564.198 23.8214H570.352C570.248 22.3088 569.286 20.9337 567.395 20.9337C565.401 20.9337 564.473 22.2056 564.198 23.8214ZM586.537 26.5371V26.2277L584.027 26.7434C582.48 27.0528 581.518 27.4309 581.518 28.6341C581.518 29.5279 582.205 30.078 583.271 30.078C585.093 30.078 586.537 28.7029 586.537 26.5371ZM591.418 23.2713V28.8404C591.418 29.6311 591.762 29.9748 592.381 29.9748C592.828 29.9748 593.206 29.9061 593.653 29.6998V32.3468C592.896 32.8969 591.934 33.3438 590.421 33.3438C588.599 33.3438 587.259 32.3812 586.812 30.6624C585.952 32.4156 584.061 33.3438 581.689 33.3438C578.63 33.3438 576.705 31.7968 576.705 29.1842C576.705 26.2621 578.905 25.0246 582.274 24.3714L586.537 23.6151V23.3401C586.537 21.8963 585.815 21.0368 584.302 21.0368C582.858 21.0368 582.136 21.9306 581.861 23.2026L577.255 22.8588C577.77 19.593 580.211 17.3241 584.577 17.3241C588.565 17.3241 591.418 19.1117 591.418 23.2713ZM606.701 17.9429L606.391 22.5838C605.601 22.1369 604.844 21.965 603.779 21.965C601.716 21.965 600.341 23.1338 600.341 25.7808V33H595.391V17.7366H600.341V20.5212C600.925 18.8023 602.507 17.3241 604.569 17.3241C605.497 17.3241 606.288 17.5991 606.701 17.9429Z" fill="#441414"/>
<path d="M60.0011 123.784C60.0011 124.891 59.8224 125.898 59.4648 126.805C59.1142 127.713 58.6157 128.493 57.9694 129.146C57.3232 129.793 56.5497 130.295 55.649 130.652C54.7483 131.01 53.748 131.188 52.6479 131.188H47.0788V116.379H52.6479C53.748 116.379 54.7483 116.558 55.649 116.915C56.5497 117.273 57.3232 117.778 57.9694 118.431C58.6157 119.077 59.1142 119.858 59.4648 120.772C59.8224 121.68 60.0011 122.684 60.0011 123.784ZM57.7529 123.784C57.7529 122.904 57.6325 122.116 57.3919 121.422C57.1513 120.721 56.8075 120.129 56.3606 119.648C55.9206 119.16 55.3843 118.789 54.7518 118.534C54.1261 118.28 53.4248 118.153 52.6479 118.153H49.2858V129.415H52.6479C53.4248 129.415 54.1261 129.287 54.7518 129.033C55.3843 128.779 55.9206 128.411 56.3606 127.93C56.8075 127.441 57.1513 126.85 57.3919 126.156C57.6325 125.461 57.7529 124.671 57.7529 123.784ZM70.8548 125.671L68.6581 119.927C68.5 119.535 68.3419 119.04 68.1837 118.442C68.1081 118.737 68.029 119.012 67.9465 119.267C67.8709 119.521 67.7953 119.748 67.7196 119.947L65.5333 125.671H70.8548ZM75.1966 131.188H73.5053C73.3128 131.188 73.1546 131.14 73.0309 131.044C72.9071 130.948 72.8177 130.824 72.7627 130.673L71.453 127.239H64.9248L63.615 130.673C63.5669 130.803 63.4775 130.924 63.3469 131.034C63.2163 131.137 63.0581 131.188 62.8725 131.188H61.1812L67.0802 116.379H69.2975L75.1966 131.188ZM81.9589 125.331V131.188H79.7726V125.331L74.3479 116.379H76.2764C76.469 116.379 76.6236 116.427 76.7405 116.523C76.8574 116.613 76.9537 116.733 77.0293 116.884L80.247 122.422C80.3776 122.677 80.4945 122.917 80.5976 123.144C80.7076 123.371 80.8039 123.595 80.8864 123.815C80.962 123.595 81.048 123.371 81.1442 123.144C81.2473 122.917 81.3642 122.677 81.4949 122.422L84.7022 116.884C84.771 116.76 84.8638 116.647 84.9807 116.544C85.1044 116.434 85.2591 116.379 85.4448 116.379H87.3836L81.9589 125.331Z" fill="#441414"/>
<path d="M212.416 123.784C212.416 124.891 212.237 125.898 211.879 126.805C211.529 127.713 211.03 128.493 210.384 129.146C209.738 129.793 208.964 130.295 208.064 130.652C207.163 131.01 206.163 131.188 205.062 131.188H199.493V116.379H205.062C206.163 116.379 207.163 116.558 208.064 116.915C208.964 117.273 209.738 117.778 210.384 118.431C211.03 119.077 211.529 119.858 211.879 120.772C212.237 121.68 212.416 122.684 212.416 123.784ZM210.167 123.784C210.167 122.904 210.047 122.116 209.806 121.422C209.566 120.721 209.222 120.129 208.775 119.648C208.335 119.16 207.799 118.789 207.166 118.534C206.541 118.28 205.839 118.153 205.062 118.153H201.7V129.415H205.062C205.839 129.415 206.541 129.287 207.166 129.033C207.799 128.779 208.335 128.411 208.775 127.93C209.222 127.441 209.566 126.85 209.806 126.156C210.047 125.461 210.167 124.671 210.167 123.784ZM223.269 125.671L221.073 119.927C220.915 119.535 220.756 119.04 220.598 118.442C220.523 118.737 220.444 119.012 220.361 119.267C220.285 119.521 220.21 119.748 220.134 119.947L217.948 125.671H223.269ZM227.611 131.188H225.92C225.727 131.188 225.569 131.14 225.445 131.044C225.322 130.948 225.232 130.824 225.177 130.673L223.868 127.239H217.339L216.03 130.673C215.981 130.803 215.892 130.924 215.761 131.034C215.631 131.137 215.473 131.188 215.287 131.188H213.596L219.495 116.379H221.712L227.611 131.188ZM234.373 125.331V131.188H232.187V125.331L226.762 116.379H228.691C228.884 116.379 229.038 116.427 229.155 116.523C229.272 116.613 229.368 116.733 229.444 116.884L232.662 122.422C232.792 122.677 232.909 122.917 233.012 123.144C233.122 123.371 233.218 123.595 233.301 123.815C233.377 123.595 233.463 123.371 233.559 123.144C233.662 122.917 233.779 122.677 233.909 122.422L237.117 116.884C237.186 116.76 237.278 116.647 237.395 116.544C237.519 116.434 237.674 116.379 237.859 116.379H239.798L234.373 125.331Z" fill="#441414"/>
<path d="M364.83 123.784C364.83 124.891 364.651 125.898 364.294 126.805C363.943 127.713 363.445 128.493 362.799 129.146C362.152 129.793 361.379 130.295 360.478 130.652C359.577 131.01 358.577 131.188 357.477 131.188H351.908V116.379H357.477C358.577 116.379 359.577 116.558 360.478 116.915C361.379 117.273 362.152 117.778 362.799 118.431C363.445 119.077 363.943 119.858 364.294 120.772C364.651 121.68 364.83 122.684 364.83 123.784ZM362.582 123.784C362.582 122.904 362.462 122.116 362.221 121.422C361.98 120.721 361.637 120.129 361.19 119.648C360.75 119.16 360.213 118.789 359.581 118.534C358.955 118.28 358.254 118.153 357.477 118.153H354.115V129.415H357.477C358.254 129.415 358.955 129.287 359.581 129.033C360.213 128.779 360.75 128.411 361.19 127.93C361.637 127.441 361.98 126.85 362.221 126.156C362.462 125.461 362.582 124.671 362.582 123.784ZM375.684 125.671L373.487 119.927C373.329 119.535 373.171 119.04 373.013 118.442C372.937 118.737 372.858 119.012 372.776 119.267C372.7 119.521 372.624 119.748 372.549 119.947L370.362 125.671H375.684ZM380.026 131.188H378.334C378.142 131.188 377.984 131.14 377.86 131.044C377.736 130.948 377.647 130.824 377.592 130.673L376.282 127.239H369.754L368.444 130.673C368.396 130.803 368.307 130.924 368.176 131.034C368.045 131.137 367.887 131.188 367.702 131.188H366.01L371.909 116.379H374.127L380.026 131.188ZM386.788 125.331V131.188H384.602V125.331L379.177 116.379H381.106C381.298 116.379 381.453 116.427 381.57 116.523C381.687 116.613 381.783 116.733 381.858 116.884L385.076 122.422C385.207 122.677 385.324 122.917 385.427 123.144C385.537 123.371 385.633 123.595 385.715 123.815C385.791 123.595 385.877 123.371 385.973 123.144C386.076 122.917 386.193 122.677 386.324 122.422L389.531 116.884C389.6 116.76 389.693 116.647 389.81 116.544C389.934 116.434 390.088 116.379 390.274 116.379H392.213L386.788 125.331Z" fill="#441414"/>
<path d="M517.245 123.784C517.245 124.891 517.066 125.898 516.708 126.805C516.358 127.713 515.859 128.493 515.213 129.146C514.567 129.793 513.793 130.295 512.893 130.652C511.992 131.01 510.992 131.188 509.892 131.188H504.322V116.379H509.892C510.992 116.379 511.992 116.558 512.893 116.915C513.793 117.273 514.567 117.778 515.213 118.431C515.859 119.077 516.358 119.858 516.708 120.772C517.066 121.68 517.245 122.684 517.245 123.784ZM514.997 123.784C514.997 122.904 514.876 122.116 514.636 121.422C514.395 120.721 514.051 120.129 513.604 119.648C513.164 119.16 512.628 118.789 511.995 118.534C511.37 118.28 510.668 118.153 509.892 118.153H506.529V129.415H509.892C510.668 129.415 511.37 129.287 511.995 129.033C512.628 128.779 513.164 128.411 513.604 127.93C514.051 127.441 514.395 126.85 514.636 126.156C514.876 125.461 514.997 124.671 514.997 123.784ZM528.098 125.671L525.902 119.927C525.744 119.535 525.586 119.04 525.427 118.442C525.352 118.737 525.273 119.012 525.19 119.267C525.115 119.521 525.039 119.748 524.963 119.947L522.777 125.671H528.098ZM532.44 131.188H530.749C530.556 131.188 530.398 131.14 530.275 131.044C530.151 130.948 530.061 130.824 530.006 130.673L528.697 127.239H522.168L520.859 130.673C520.811 130.803 520.721 130.924 520.591 131.034C520.46 131.137 520.302 131.188 520.116 131.188H518.425L524.324 116.379H526.541L532.44 131.188ZM539.203 125.331V131.188H537.016V125.331L531.592 116.379H533.52C533.713 116.379 533.867 116.427 533.984 116.523C534.101 116.613 534.197 116.733 534.273 116.884L537.491 122.422C537.621 122.677 537.738 122.917 537.841 123.144C537.951 123.371 538.048 123.595 538.13 123.815C538.206 123.595 538.292 123.371 538.388 123.144C538.491 122.917 538.608 122.677 538.739 122.422L541.946 116.884C542.015 116.76 542.107 116.647 542.224 116.544C542.348 116.434 542.503 116.379 542.688 116.379H544.627L539.203 125.331Z" fill="#441414"/>
<path d="M669.659 123.784C669.659 124.891 669.48 125.898 669.123 126.805C668.772 127.713 668.273 128.493 667.627 129.146C666.981 129.793 666.207 130.295 665.307 130.652C664.406 131.01 663.406 131.188 662.306 131.188H656.737V116.379H662.306C663.406 116.379 664.406 116.558 665.307 116.915C666.207 117.273 666.981 117.778 667.627 118.431C668.273 119.077 668.772 119.858 669.123 120.772C669.48 121.68 669.659 122.684 669.659 123.784ZM667.411 123.784C667.411 122.904 667.29 122.116 667.05 121.422C666.809 120.721 666.465 120.129 666.018 119.648C665.578 119.16 665.042 118.789 664.409 118.534C663.784 118.28 663.083 118.153 662.306 118.153H658.944V129.415H662.306C663.083 129.415 663.784 129.287 664.409 129.033C665.042 128.779 665.578 128.411 666.018 127.93C666.465 127.441 666.809 126.85 667.05 126.156C667.29 125.461 667.411 124.671 667.411 123.784ZM680.513 125.671L678.316 119.927C678.158 119.535 678 119.04 677.841 118.442C677.766 118.737 677.687 119.012 677.604 119.267C677.529 119.521 677.453 119.748 677.377 119.947L675.191 125.671H680.513ZM684.854 131.188H683.163C682.97 131.188 682.812 131.14 682.689 131.044C682.565 130.948 682.475 130.824 682.42 130.673L681.111 127.239H674.583L673.273 130.673C673.225 130.803 673.135 130.924 673.005 131.034C672.874 131.137 672.716 131.188 672.53 131.188H670.839L676.738 116.379H678.955L684.854 131.188ZM691.617 125.331V131.188H689.43V125.331L684.006 116.379H685.934C686.127 116.379 686.281 116.427 686.398 116.523C686.515 116.613 686.611 116.733 686.687 116.884L689.905 122.422C690.035 122.677 690.152 122.917 690.255 123.144C690.365 123.371 690.462 123.595 690.544 123.815C690.62 123.595 690.706 123.371 690.802 123.144C690.905 122.917 691.022 122.677 691.153 122.422L694.36 116.884C694.429 116.76 694.522 116.647 694.638 116.544C694.762 116.434 694.917 116.379 695.102 116.379H697.041L691.617 125.331Z" fill="#441414"/>
<path d="M822.074 123.784C822.074 124.891 821.895 125.898 821.538 126.805C821.187 127.713 820.688 128.493 820.042 129.146C819.396 129.793 818.622 130.295 817.722 130.652C816.821 131.01 815.821 131.188 814.721 131.188H809.152V116.379H814.721C815.821 116.379 816.821 116.558 817.722 116.915C818.622 117.273 819.396 117.778 820.042 118.431C820.688 119.077 821.187 119.858 821.538 120.772C821.895 121.68 822.074 122.684 822.074 123.784ZM819.826 123.784C819.826 122.904 819.705 122.116 819.465 121.422C819.224 120.721 818.88 120.129 818.433 119.648C817.993 119.16 817.457 118.789 816.825 118.534C816.199 118.28 815.498 118.153 814.721 118.153H811.359V129.415H814.721C815.498 129.415 816.199 129.287 816.825 129.033C817.457 128.779 817.993 128.411 818.433 127.93C818.88 127.441 819.224 126.85 819.465 126.156C819.705 125.461 819.826 124.671 819.826 123.784ZM832.928 125.671L830.731 119.927C830.573 119.535 830.415 119.04 830.256 118.442C830.181 118.737 830.102 119.012 830.019 119.267C829.944 119.521 829.868 119.748 829.792 119.947L827.606 125.671H832.928ZM837.269 131.188H835.578C835.386 131.188 835.227 131.14 835.104 131.044C834.98 130.948 834.89 130.824 834.835 130.673L833.526 127.239H826.998L825.688 130.673C825.64 130.803 825.55 130.924 825.42 131.034C825.289 131.137 825.131 131.188 824.945 131.188H823.254L829.153 116.379H831.37L837.269 131.188ZM844.032 125.331V131.188H841.845V125.331L836.421 116.379H838.349C838.542 116.379 838.696 116.427 838.813 116.523C838.93 116.613 839.026 116.733 839.102 116.884L842.32 122.422C842.45 122.677 842.567 122.917 842.67 123.144C842.78 123.371 842.877 123.595 842.959 123.815C843.035 123.595 843.121 123.371 843.217 123.144C843.32 122.917 843.437 122.677 843.568 122.422L846.775 116.884C846.844 116.76 846.937 116.647 847.053 116.544C847.177 116.434 847.332 116.379 847.518 116.379H849.456L844.032 125.331Z" fill="#441414"/>
<path d="M974.488 123.784C974.488 124.891 974.309 125.898 973.952 126.805C973.601 127.713 973.103 128.493 972.456 129.146C971.81 129.793 971.036 130.295 970.136 130.652C969.235 131.01 968.235 131.188 967.135 131.188H961.566V116.379H967.135C968.235 116.379 969.235 116.558 970.136 116.915C971.036 117.273 971.81 117.778 972.456 118.431C973.103 119.077 973.601 119.858 973.952 120.772C974.309 121.68 974.488 122.684 974.488 123.784ZM972.24 123.784C972.24 122.904 972.119 122.116 971.879 121.422C971.638 120.721 971.294 120.129 970.847 119.648C970.407 119.16 969.871 118.789 969.239 118.534C968.613 118.28 967.912 118.153 967.135 118.153H963.773V129.415H967.135C967.912 129.415 968.613 129.287 969.239 129.033C969.871 128.779 970.407 128.411 970.847 127.93C971.294 127.441 971.638 126.85 971.879 126.156C972.119 125.461 972.24 124.671 972.24 123.784ZM985.342 125.671L983.145 119.927C982.987 119.535 982.829 119.04 982.671 118.442C982.595 118.737 982.516 119.012 982.433 119.267C982.358 119.521 982.282 119.748 982.206 119.947L980.02 125.671H985.342ZM989.683 131.188H987.992C987.8 131.188 987.641 131.14 987.518 131.044C987.394 130.948 987.305 130.824 987.25 130.673L985.94 127.239H979.412L978.102 130.673C978.054 130.803 977.964 130.924 977.834 131.034C977.703 131.137 977.545 131.188 977.359 131.188H975.668L981.567 116.379H983.784L989.683 131.188ZM996.446 125.331V131.188H994.259V125.331L988.835 116.379H990.763C990.956 116.379 991.11 116.427 991.227 116.523C991.344 116.613 991.44 116.733 991.516 116.884L994.734 122.422C994.864 122.677 994.981 122.917 995.084 123.144C995.194 123.371 995.291 123.595 995.373 123.815C995.449 123.595 995.535 123.371 995.631 123.144C995.734 122.917 995.851 122.677 995.982 122.422L999.189 116.884C999.258 116.76 999.351 116.647 999.467 116.544C999.591 116.434 999.746 116.379 999.932 116.379H1001.87L996.446 125.331Z" fill="#441414"/>
<path d="M74.3266 226.695V229H62.3222V226.695H67.0249V212.138C67.0249 211.674 67.0404 211.194 67.0713 210.699L63.2968 213.902C63.1524 214.015 63.008 214.087 62.8636 214.118C62.7192 214.149 62.58 214.154 62.4459 214.134C62.3222 214.113 62.2087 214.072 62.1056 214.01C62.0128 213.938 61.9354 213.866 61.8736 213.793L60.9299 212.478L67.5818 206.739H70.0415V226.695H74.3266Z" fill="#441414"/>
<path d="M226.496 226.695V229H214.491V226.695H219.194V212.138C219.194 211.674 219.209 211.194 219.24 210.699L215.466 213.902C215.321 214.015 215.177 214.087 215.033 214.118C214.888 214.149 214.749 214.154 214.615 214.134C214.491 214.113 214.378 214.072 214.275 214.01C214.182 213.938 214.104 213.866 214.043 213.793L213.099 212.478L219.751 206.739H222.21V226.695H226.496Z" fill="#441414"/>
<path d="M378.664 226.695V229H366.66V226.695H371.363V212.138C371.363 211.674 371.378 211.194 371.409 210.699L367.635 213.902C367.49 214.015 367.346 214.087 367.202 214.118C367.057 214.149 366.918 214.154 366.784 214.134C366.66 214.113 366.547 214.072 366.443 214.01C366.351 213.938 366.273 213.866 366.211 213.793L365.268 212.478L371.92 206.739H374.379V226.695H378.664Z" fill="#441414"/>
<path d="M530.833 226.695V229H518.829V226.695H523.532V212.138C523.532 211.674 523.547 211.194 523.578 210.699L519.804 213.902C519.659 214.015 519.515 214.087 519.37 214.118C519.226 214.149 519.087 214.154 518.953 214.134C518.829 214.113 518.716 214.072 518.612 214.01C518.52 213.938 518.442 213.866 518.38 213.793L517.437 212.478L524.089 206.739H526.548V226.695H530.833Z" fill="#441414"/>
<path d="M683.002 226.695V229H670.998V226.695H675.701V212.138C675.701 211.674 675.716 211.194 675.747 210.699L671.973 213.902C671.828 214.015 671.684 214.087 671.539 214.118C671.395 214.149 671.256 214.154 671.122 214.134C670.998 214.113 670.885 214.072 670.781 214.01C670.689 213.938 670.611 213.866 670.549 213.793L669.606 212.478L676.258 206.739H678.717V226.695H683.002Z" fill="#441414"/>
<path d="M835.171 226.695V229H823.167V226.695H827.87V212.138C827.87 211.674 827.885 211.194 827.916 210.699L824.141 213.902C823.997 214.015 823.853 214.087 823.708 214.118C823.564 214.149 823.425 214.154 823.291 214.134C823.167 214.113 823.053 214.072 822.95 214.01C822.858 213.938 822.78 213.866 822.718 213.793L821.775 212.478L828.427 206.739H830.886V226.695H835.171Z" fill="#441414"/>
<path d="M987.34 226.695V229H975.336V226.695H980.039V212.138C980.039 211.674 980.054 211.194 980.085 210.699L976.31 213.902C976.166 214.015 976.022 214.087 975.877 214.118C975.733 214.149 975.594 214.154 975.46 214.134C975.336 214.113 975.222 214.072 975.119 214.01C975.026 213.938 974.949 213.866 974.887 213.793L973.944 212.478L980.596 206.739H983.055V226.695H987.34Z" fill="#441414"/>
<path d="M74.3266 366.195V368.5H62.3222V366.195H67.0249V351.638C67.0249 351.174 67.0404 350.694 67.0713 350.199L63.2968 353.402C63.1524 353.515 63.008 353.587 62.8636 353.618C62.7192 353.649 62.58 353.654 62.4459 353.634C62.3222 353.613 62.2087 353.572 62.1056 353.51C62.0128 353.438 61.9354 353.366 61.8736 353.293L60.9299 351.978L67.5818 346.239H70.0415V366.195H74.3266Z" fill="#441414"/>
<path d="M226.496 366.195V368.5H214.491V366.195H219.194V351.638C219.194 351.174 219.209 350.694 219.24 350.199L215.466 353.402C215.321 353.515 215.177 353.587 215.033 353.618C214.888 353.649 214.749 353.654 214.615 353.634C214.491 353.613 214.378 353.572 214.275 353.51C214.182 353.438 214.104 353.366 214.043 353.293L213.099 351.978L219.751 346.239H222.21V366.195H226.496Z" fill="#441414"/>
<path d="M378.664 366.195V368.5H366.66V366.195H371.363V351.638C371.363 351.174 371.378 350.694 371.409 350.199L367.635 353.402C367.49 353.515 367.346 353.587 367.202 353.618C367.057 353.649 366.918 353.654 366.784 353.634C366.66 353.613 366.547 353.572 366.443 353.51C366.351 353.438 366.273 353.366 366.211 353.293L365.268 351.978L371.92 346.239H374.379V366.195H378.664Z" fill="#441414"/>
<path d="M530.833 366.195V368.5H518.829V366.195H523.532V351.638C523.532 351.174 523.547 350.694 523.578 350.199L519.804 353.402C519.659 353.515 519.515 353.587 519.37 353.618C519.226 353.649 519.087 353.654 518.953 353.634C518.829 353.613 518.716 353.572 518.612 353.51C518.52 353.438 518.442 353.366 518.38 353.293L517.437 351.978L524.089 346.239H526.548V366.195H530.833Z" fill="#441414"/>
<path d="M683.002 366.195V368.5H670.998V366.195H675.701V351.638C675.701 351.174 675.716 350.694 675.747 350.199L671.973 353.402C671.828 353.515 671.684 353.587 671.539 353.618C671.395 353.649 671.256 353.654 671.122 353.634C670.998 353.613 670.885 353.572 670.781 353.51C670.689 353.438 670.611 353.366 670.549 353.293L669.606 351.978L676.258 346.239H678.717V366.195H683.002Z" fill="#441414"/>
<path d="M835.171 366.195V368.5H823.167V366.195H827.87V351.638C827.87 351.174 827.885 350.694 827.916 350.199L824.141 353.402C823.997 353.515 823.853 353.587 823.708 353.618C823.564 353.649 823.425 353.654 823.291 353.634C823.167 353.613 823.053 353.572 822.95 353.51C822.858 353.438 822.78 353.366 822.718 353.293L821.775 351.978L828.427 346.239H830.886V366.195H835.171Z" fill="#441414"/>
<path d="M987.34 366.195V368.5H975.336V366.195H980.039V351.638C980.039 351.174 980.054 350.694 980.085 350.199L976.31 353.402C976.166 353.515 976.022 353.587 975.877 353.618C975.733 353.649 975.594 353.654 975.46 353.634C975.336 353.613 975.222 353.572 975.119 353.51C975.026 353.438 974.949 353.366 974.887 353.293L973.944 351.978L980.596 346.239H983.055V366.195H987.34Z" fill="#441414"/>
<path d="M74.3266 505.695V508H62.3222V505.695H67.0249V491.138C67.0249 490.674 67.0404 490.194 67.0713 489.699L63.2968 492.902C63.1524 493.015 63.008 493.087 62.8636 493.118C62.7192 493.149 62.58 493.154 62.4459 493.134C62.3222 493.113 62.2087 493.072 62.1056 493.01C62.0128 492.938 61.9354 492.866 61.8736 492.793L60.9299 491.478L67.5818 485.739H70.0415V505.695H74.3266Z" fill="#441414"/>
<path d="M226.496 505.695V508H214.491V505.695H219.194V491.138C219.194 490.674 219.209 490.194 219.24 489.699L215.466 492.902C215.321 493.015 215.177 493.087 215.033 493.118C214.888 493.149 214.749 493.154 214.615 493.134C214.491 493.113 214.378 493.072 214.275 493.01C214.182 492.938 214.104 492.866 214.043 492.793L213.099 491.478L219.751 485.739H222.21V505.695H226.496Z" fill="#441414"/>
<path d="M378.664 505.695V508H366.66V505.695H371.363V491.138C371.363 490.674 371.378 490.194 371.409 489.699L367.635 492.902C367.49 493.015 367.346 493.087 367.202 493.118C367.057 493.149 366.918 493.154 366.784 493.134C366.66 493.113 366.547 493.072 366.443 493.01C366.351 492.938 366.273 492.866 366.211 492.793L365.268 491.478L371.92 485.739H374.379V505.695H378.664Z" fill="#441414"/>
<path d="M530.833 505.695V508H518.829V505.695H523.532V491.138C523.532 490.674 523.547 490.194 523.578 489.699L519.804 492.902C519.659 493.015 519.515 493.087 519.37 493.118C519.226 493.149 519.087 493.154 518.953 493.134C518.829 493.113 518.716 493.072 518.612 493.01C518.52 492.938 518.442 492.866 518.38 492.793L517.437 491.478L524.089 485.739H526.548V505.695H530.833Z" fill="#441414"/>
<path d="M683.002 505.695V508H670.998V505.695H675.701V491.138C675.701 490.674 675.716 490.194 675.747 489.699L671.973 492.902C671.828 493.015 671.684 493.087 671.539 493.118C671.395 493.149 671.256 493.154 671.122 493.134C670.998 493.113 670.885 493.072 670.781 493.01C670.689 492.938 670.611 492.866 670.549 492.793L669.606 491.478L676.258 485.739H678.717V505.695H683.002Z" fill="#441414"/>
<path d="M835.171 505.695V508H823.167V505.695H827.87V491.138C827.87 490.674 827.885 490.194 827.916 489.699L824.141 492.902C823.997 493.015 823.853 493.087 823.708 493.118C823.564 493.149 823.425 493.154 823.291 493.134C823.167 493.113 823.053 493.072 822.95 493.01C822.858 492.938 822.78 492.866 822.718 492.793L821.775 491.478L828.427 485.739H830.886V505.695H835.171Z" fill="#441414"/>
<path d="M987.34 505.695V508H975.336V505.695H980.039V491.138C980.039 490.674 980.054 490.194 980.085 489.699L976.31 492.902C976.166 493.015 976.022 493.087 975.877 493.118C975.733 493.149 975.594 493.154 975.46 493.134C975.336 493.113 975.222 493.072 975.119 493.01C975.026 492.938 974.949 492.866 974.887 492.793L973.944 491.478L980.596 485.739H983.055V505.695H987.34Z" fill="#441414"/>
<path d="M74.3266 645.195V647.5H62.3222V645.195H67.0249V630.638C67.0249 630.174 67.0404 629.694 67.0713 629.199L63.2968 632.402C63.1524 632.515 63.008 632.587 62.8636 632.618C62.7192 632.649 62.58 632.654 62.4459 632.634C62.3222 632.613 62.2087 632.572 62.1056 632.51C62.0128 632.438 61.9354 632.366 61.8736 632.293L60.9299 630.978L67.5818 625.239H70.0415V645.195H74.3266Z" fill="#441414"/>
<path d="M226.496 645.195V647.5H214.491V645.195H219.194V630.638C219.194 630.174 219.209 629.694 219.24 629.199L215.466 632.402C215.321 632.515 215.177 632.587 215.033 632.618C214.888 632.649 214.749 632.654 214.615 632.634C214.491 632.613 214.378 632.572 214.275 632.51C214.182 632.438 214.104 632.366 214.043 632.293L213.099 630.978L219.751 625.239H222.21V645.195H226.496Z" fill="#441414"/>
<path d="M378.664 645.195V647.5H366.66V645.195H371.363V630.638C371.363 630.174 371.378 629.694 371.409 629.199L367.635 632.402C367.49 632.515 367.346 632.587 367.202 632.618C367.057 632.649 366.918 632.654 366.784 632.634C366.66 632.613 366.547 632.572 366.443 632.51C366.351 632.438 366.273 632.366 366.211 632.293L365.268 630.978L371.92 625.239H374.379V645.195H378.664Z" fill="#441414"/>
<path d="M530.833 645.195V647.5H518.829V645.195H523.532V630.638C523.532 630.174 523.547 629.694 523.578 629.199L519.804 632.402C519.659 632.515 519.515 632.587 519.37 632.618C519.226 632.649 519.087 632.654 518.953 632.634C518.829 632.613 518.716 632.572 518.612 632.51C518.52 632.438 518.442 632.366 518.38 632.293L517.437 630.978L524.089 625.239H526.548V645.195H530.833Z" fill="#441414"/>
<path d="M683.002 645.195V647.5H670.998V645.195H675.701V630.638C675.701 630.174 675.716 629.694 675.747 629.199L671.973 632.402C671.828 632.515 671.684 632.587 671.539 632.618C671.395 632.649 671.256 632.654 671.122 632.634C670.998 632.613 670.885 632.572 670.781 632.51C670.689 632.438 670.611 632.366 670.549 632.293L669.606 630.978L676.258 625.239H678.717V645.195H683.002Z" fill="#441414"/>
<path d="M835.171 645.195V647.5H823.167V645.195H827.87V630.638C827.87 630.174 827.885 629.694 827.916 629.199L824.141 632.402C823.997 632.515 823.853 632.587 823.708 632.618C823.564 632.649 823.425 632.654 823.291 632.634C823.167 632.613 823.053 632.572 822.95 632.51C822.858 632.438 822.78 632.366 822.718 632.293L821.775 630.978L828.427 625.239H830.886V645.195H835.171Z" fill="#441414"/>
<path d="M987.34 645.195V647.5H975.336V645.195H980.039V630.638C980.039 630.174 980.054 629.694 980.085 629.199L976.31 632.402C976.166 632.515 976.022 632.587 975.877 632.618C975.733 632.649 975.594 632.654 975.46 632.634C975.336 632.613 975.222 632.572 975.119 632.51C975.026 632.438 974.949 632.366 974.887 632.293L973.944 630.978L980.596 625.239H983.055V645.195H987.34Z" fill="#441414"/>
<path d="M74.3266 784.695V787H62.3222V784.695H67.0249V770.138C67.0249 769.674 67.0404 769.194 67.0713 768.699L63.2968 771.902C63.1524 772.015 63.008 772.087 62.8636 772.118C62.7192 772.149 62.58 772.154 62.4459 772.134C62.3222 772.113 62.2087 772.072 62.1056 772.01C62.0128 771.938 61.9354 771.866 61.8736 771.793L60.9299 770.478L67.5818 764.739H70.0415V784.695H74.3266Z" fill="#441414"/>
<path d="M226.496 784.695V787H214.491V784.695H219.194V770.138C219.194 769.674 219.209 769.194 219.24 768.699L215.466 771.902C215.321 772.015 215.177 772.087 215.033 772.118C214.888 772.149 214.749 772.154 214.615 772.134C214.491 772.113 214.378 772.072 214.275 772.01C214.182 771.938 214.104 771.866 214.043 771.793L213.099 770.478L219.751 764.739H222.21V784.695H226.496Z" fill="#441414"/>
<path d="M378.664 784.695V787H366.66V784.695H371.363V770.138C371.363 769.674 371.378 769.194 371.409 768.699L367.635 771.902C367.49 772.015 367.346 772.087 367.202 772.118C367.057 772.149 366.918 772.154 366.784 772.134C366.66 772.113 366.547 772.072 366.443 772.01C366.351 771.938 366.273 771.866 366.211 771.793L365.268 770.478L371.92 764.739H374.379V784.695H378.664Z" fill="#441414"/>
<path d="M530.833 784.695V787H518.829V784.695H523.532V770.138C523.532 769.674 523.547 769.194 523.578 768.699L519.804 771.902C519.659 772.015 519.515 772.087 519.37 772.118C519.226 772.149 519.087 772.154 518.953 772.134C518.829 772.113 518.716 772.072 518.612 772.01C518.52 771.938 518.442 771.866 518.38 771.793L517.437 770.478L524.089 764.739H526.548V784.695H530.833Z" fill="#441414"/>
<path d="M683.002 784.695V787H670.998V784.695H675.701V770.138C675.701 769.674 675.716 769.194 675.747 768.699L671.973 771.902C671.828 772.015 671.684 772.087 671.539 772.118C671.395 772.149 671.256 772.154 671.122 772.134C670.998 772.113 670.885 772.072 670.781 772.01C670.689 771.938 670.611 771.866 670.549 771.793L669.606 770.478L676.258 764.739H678.717V784.695H683.002Z" fill="#441414"/>
<path d="M835.171 784.695V787H823.167V784.695H827.87V770.138C827.87 769.674 827.885 769.194 827.916 768.699L824.141 771.902C823.997 772.015 823.853 772.087 823.708 772.118C823.564 772.149 823.425 772.154 823.291 772.134C823.167 772.113 823.053 772.072 822.95 772.01C822.858 771.938 822.78 771.866 822.718 771.793L821.775 770.478L828.427 764.739H830.886V784.695H835.171Z" fill="#441414"/>
<path d="M987.34 784.695V787H975.336V784.695H980.039V770.138C980.039 769.674 980.054 769.194 980.085 768.699L976.31 771.902C976.166 772.015 976.022 772.087 975.877 772.118C975.733 772.149 975.594 772.154 975.46 772.134C975.336 772.113 975.222 772.072 975.119 772.01C975.026 771.938 974.949 771.866 974.887 771.793L973.944 770.478L980.596 764.739H983.055V784.695H987.34Z" fill="#441414"/>
<line x1="33.8565" y1="82.1406" x2="1014.14" y2="82.1406" stroke="#441414" stroke-width="1.71885" stroke-linecap="round"/>
</svg>
