<svg width="26" height="26" viewBox="0 0 26 26" fill="none" xmlns="http://www.w3.org/2000/svg">
<g clip-path="url(#clip0_492_635)">
<path d="M12.9452 2.34102C16.2536 2.34102 16.6454 2.35625 17.9465 2.41719C19.1557 2.47305 19.8086 2.68633 20.2439 2.86406C20.8195 3.09766 21.2355 3.38203 21.666 3.83398C22.1013 4.29102 22.3673 4.72266 22.5898 5.32695C22.7591 5.78398 22.9622 6.47461 23.0154 7.73906C23.0735 9.11016 23.088 9.52149 23.088 12.9898C23.088 16.4633 23.0735 16.8746 23.0154 18.2406C22.9622 19.5102 22.7591 20.1957 22.5898 20.6527C22.3673 21.257 22.0964 21.6938 21.666 22.1457C21.2307 22.6027 20.8195 22.882 20.2439 23.1156C19.8086 23.2934 19.1508 23.5066 17.9465 23.5625C16.6405 23.6234 16.2487 23.6387 12.9452 23.6387C9.63683 23.6387 9.24505 23.6234 7.94395 23.5625C6.73475 23.5066 6.08178 23.2934 5.64647 23.1156C5.07089 22.882 4.65492 22.5977 4.22445 22.1457C3.78914 21.6887 3.52311 21.257 3.30062 20.6527C3.13133 20.1957 2.92819 19.5051 2.87498 18.2406C2.81694 16.8695 2.80243 16.4582 2.80243 12.9898C2.80243 9.51641 2.81694 9.10508 2.87498 7.73906C2.92819 6.46953 3.13133 5.78398 3.30062 5.32695C3.52311 4.72266 3.79397 4.28594 4.22445 3.83398C4.65976 3.37695 5.07089 3.09766 5.64647 2.86406C6.08178 2.68633 6.73959 2.47305 7.94395 2.41719C9.24505 2.35625 9.63683 2.34102 12.9452 2.34102ZM12.9452 0C9.58363 0 9.16283 0.0152344 7.84238 0.0761719C6.52677 0.137109 5.62229 0.360547 4.83872 0.680469C4.0213 1.01562 3.32964 1.45742 2.64281 2.18359C1.95115 2.90469 1.53035 3.63086 1.21112 4.48398C0.906401 5.31172 0.693582 6.25625 0.63554 7.6375C0.577499 9.02891 0.562988 9.4707 0.562988 13C0.562988 16.5293 0.577499 16.9711 0.63554 18.3574C0.693582 19.7387 0.906401 20.6883 1.21112 21.5109C1.53035 22.3691 1.95115 23.0953 2.64281 23.8164C3.32964 24.5375 4.0213 24.9844 4.83389 25.3145C5.62229 25.6344 6.52193 25.8578 7.83754 25.9188C9.15799 25.9797 9.57879 25.9949 12.9404 25.9949C16.302 25.9949 16.7228 25.9797 18.0432 25.9188C19.3588 25.8578 20.2633 25.6344 21.0469 25.3145C21.8594 24.9844 22.5511 24.5375 23.2379 23.8164C23.9248 23.0953 24.3504 22.3691 24.6648 21.516C24.9695 20.6883 25.1823 19.7438 25.2404 18.3625C25.2984 16.9762 25.3129 16.5344 25.3129 13.0051C25.3129 9.47578 25.2984 9.03399 25.2404 7.64766C25.1823 6.26641 24.9695 5.3168 24.6648 4.49414C24.3601 3.63086 23.9393 2.90469 23.2476 2.18359C22.5608 1.4625 21.8691 1.01562 21.0565 0.685547C20.2681 0.365625 19.3685 0.142188 18.0529 0.08125C16.7276 0.0152344 16.3068 0 12.9452 0Z" fill="#441414"/>
<path d="M12.9451 6.32227C9.43359 6.32227 6.58472 9.31328 6.58472 13C6.58472 16.6867 9.43359 19.6777 12.9451 19.6777C16.4566 19.6777 19.3055 16.6867 19.3055 13C19.3055 9.31328 16.4566 6.32227 12.9451 6.32227ZM12.9451 17.3316C10.667 17.3316 8.81932 15.3918 8.81932 13C8.81932 10.6082 10.667 8.66836 12.9451 8.66836C15.2232 8.66836 17.0709 10.6082 17.0709 13C17.0709 15.3918 15.2232 17.3316 12.9451 17.3316Z" fill="#441414"/>
<path d="M21.0421 6.05801C21.0421 6.92129 20.3746 7.617 19.5572 7.617C18.7349 7.617 18.0723 6.91621 18.0723 6.05801C18.0723 5.19473 18.7397 4.49902 19.5572 4.49902C20.3746 4.49902 21.0421 5.19981 21.0421 6.05801Z" fill="#441414"/>
</g>
<defs>
<clipPath id="clip0_492_635">
<rect width="24.7644" height="26" fill="white" transform="translate(0.562988)"/>
</clipPath>
</defs>
</svg>
