<svg width="27" height="26" viewBox="0 0 27 26" fill="none" xmlns="http://www.w3.org/2000/svg">
<g clip-path="url(#clip0_492_634)">
<path d="M24.7707 0H2.82356C1.77224 0 0.922119 0.837891 0.922119 1.87383V24.1211C0.922119 25.157 1.77224 26 2.82356 26H24.7707C25.822 26 26.6771 25.157 26.6771 24.1262V1.87383C26.6771 0.837891 25.822 0 24.7707 0ZM8.56311 22.1559H4.7401V9.74492H8.56311V22.1559ZM6.6516 8.05391C5.42422 8.05391 4.43325 7.05352 4.43325 5.81953C4.43325 4.58555 5.42422 3.58516 6.6516 3.58516C7.87396 3.58516 8.86493 4.58555 8.86493 5.81953C8.86493 7.04844 7.87396 8.05391 6.6516 8.05391ZM22.8692 22.1559H19.0512V16.123C19.0512 14.6859 19.0261 12.8324 17.0643 12.8324C15.0773 12.8324 14.7755 14.4016 14.7755 16.0215V22.1559H10.9626V9.74492H14.6246V11.441H14.6749C15.183 10.466 16.4305 9.43516 18.2866 9.43516C22.1549 9.43516 22.8692 12.0047 22.8692 15.3461V22.1559Z" fill="#441414"/>
</g>
<defs>
<clipPath id="clip0_492_634">
<rect width="25.755" height="26" fill="white" transform="translate(0.922119)"/>
</clipPath>
</defs>
</svg>
