<svg width="57" height="64" viewBox="0 0 57 64" fill="none" xmlns="http://www.w3.org/2000/svg">
<path d="M55.0101 0C55.6622 0.244697 56.1398 0.65127 56.2687 1.3703C56.299 1.53594 56.3066 1.70911 56.3066 1.88228C56.3066 18.4012 56.3066 34.9164 56.3066 51.4353C56.3066 52.8319 55.4234 53.8446 54.0018 54.0931C48.8196 55.0041 43.6374 55.9226 38.4552 56.8299C36.8668 57.1085 35.2746 57.3795 33.6786 57.6393C32.5072 57.8313 31.6125 57.116 31.605 55.9415C31.5822 53.1595 31.5936 50.3737 31.5898 47.5917C31.5898 46.1799 31.5898 44.7645 31.5898 43.3528C31.5898 43.2398 31.5898 43.1269 31.5898 42.9387C31.3851 43.0968 31.2297 43.2059 31.0856 43.3226C29.2091 44.8435 27.3477 46.3908 25.4409 47.8778C24.9708 48.2467 24.7737 48.5817 24.7813 49.1841C24.8192 51.7628 24.8002 54.3453 24.7965 56.924C24.7965 58.3244 23.8373 59.386 22.4385 59.6232C19.7128 60.0825 16.9909 60.5756 14.2653 61.0537C11.8997 61.4679 9.53797 61.882 7.17243 62.2961C5.53854 62.5822 3.90845 62.8607 2.27456 63.1431C2.19116 63.1581 2.11155 63.1883 2.02815 63.2108H1.64147C0.576221 63.0226 0 62.2848 0 60.9295C0.0113728 54.3566 0.00758185 47.7836 0.00758185 41.2107C0.00758185 31.6186 0.00758185 22.0302 0.0113728 12.4381C0.0113728 12.0165 0.0341183 11.5873 0.12131 11.177C0.375302 10.0062 1.19793 9.26836 2.39587 9.06508C3.24503 8.92202 4.09041 8.76768 4.93958 8.62086C10.5881 7.63454 16.2403 6.64823 21.8926 5.66191C22.1693 5.61297 22.4423 5.5565 22.719 5.52638C23.9549 5.38333 24.7889 6.11366 24.7927 7.3522C24.7965 10.1794 24.8002 13.0028 24.7889 15.83C24.7889 16.0973 24.8799 16.2215 25.1149 16.3307C27.1658 17.2718 29.2129 18.2243 31.26 19.1767C31.3548 19.2219 31.4495 19.2558 31.586 19.3122C31.586 19.1353 31.586 19.0111 31.586 18.8868C31.586 14.6592 31.586 10.4316 31.586 6.20401C31.586 4.90147 32.4314 3.84739 33.7279 3.60269C35.7257 3.23 37.7311 2.89119 39.7365 2.53732C43.7018 1.84087 47.6671 1.15196 51.6286 0.455513C52.4551 0.308695 53.2777 0.154347 54.1003 0C54.4036 0 54.7031 0 55.0063 0L55.0101 0ZM20.3611 32.6501C20.3611 32.6501 20.3497 32.6501 20.3421 32.6501C20.3421 34.8975 20.3421 37.145 20.3421 39.3924C20.3421 40.71 20.3383 42.0239 20.3421 43.3415C20.3421 44.1019 20.7553 44.6289 21.4415 44.7569C21.9798 44.8586 22.4385 44.6704 22.8517 44.3428C23.4658 43.8534 24.0724 43.3603 24.6827 42.8634C29.0992 39.2682 33.5118 35.673 37.9282 32.0741C38.5765 31.5433 39.2513 31.0389 39.8578 30.4629C40.8093 29.5594 40.5857 28.3359 39.4029 27.7863C36.8592 26.6004 34.3155 25.4221 31.7755 24.2363C28.8641 22.881 25.9489 21.5258 23.0375 20.1706C22.7001 20.0124 22.3551 19.9183 21.976 20.0011C21.0396 20.2044 20.3497 21.0439 20.3497 22.019C20.3497 23.6452 20.3611 25.2715 20.3649 26.8978C20.3649 28.814 20.3649 30.7302 20.3649 32.6463L20.3611 32.6501Z" fill="#FFD551"/>
</svg>
