<svg width="27" height="26" viewBox="0 0 27 26" fill="none" xmlns="http://www.w3.org/2000/svg">
<path d="M0.753418 26L2.56378 19.3234C1.44666 17.3691 0.859657 15.1537 0.86073 12.8819C0.86395 5.77958 6.58906 0 13.6234 0C17.037 0.00108333 20.2413 1.34333 22.6516 3.77867C25.0607 6.214 26.3871 9.451 26.386 12.8938C26.3828 19.9973 20.6577 25.7768 13.6234 25.7768C11.4879 25.7758 9.38348 25.2352 7.51946 24.2082L0.753418 26ZM7.83281 21.8758C9.63137 22.9537 11.3484 23.5993 13.6191 23.6004C19.4655 23.6004 24.228 18.7969 24.2312 12.8917C24.2334 6.9745 19.4934 2.1775 13.6277 2.17533C7.77701 2.17533 3.01771 6.97883 3.01556 12.883C3.01449 15.2934 3.71417 17.0982 4.88924 18.9865L3.81719 22.9385L7.83281 21.8758ZM20.0525 15.9564C19.9731 15.8221 19.7606 15.7419 19.4408 15.5805C19.1221 15.4191 17.5542 14.6402 17.2613 14.5329C16.9694 14.4257 16.7569 14.3715 16.5434 14.6943C16.3309 15.0161 15.7192 15.7419 15.5335 15.9564C15.3479 16.1709 15.1612 16.198 14.8425 16.0366C14.5237 15.8752 13.4957 15.5361 12.2777 14.4387C11.3301 13.585 10.6895 12.5309 10.5038 12.2081C10.3182 11.8863 10.4845 11.7119 10.6433 11.5516C10.7871 11.4075 10.962 11.1757 11.1219 10.9872C11.284 10.8008 11.3366 10.6665 11.4439 10.4509C11.5501 10.2364 11.4975 10.0479 11.417 9.8865C11.3366 9.72617 10.6991 8.14125 10.4341 7.49667C10.1744 6.86942 9.91145 6.95392 9.71615 6.94417L9.10446 6.93333C8.89199 6.93333 8.54644 7.0135 8.25455 7.33633C7.96266 7.65917 7.1385 8.437 7.1385 10.0219C7.1385 11.6068 8.28138 13.1376 8.4402 13.3521C8.6001 13.5666 10.6884 16.8188 13.8874 18.213C14.6482 18.5445 15.2427 18.7428 15.7052 18.8912C16.4693 19.136 17.1647 19.1013 17.7141 19.019C18.3269 18.9269 19.6007 18.2401 19.8668 17.4883C20.133 16.7353 20.133 16.0907 20.0525 15.9564Z" fill="#441414"/>
</svg>
