<svg width="26" height="26" viewBox="0 0 26 26" fill="none" xmlns="http://www.w3.org/2000/svg">
<g clip-path="url(#clip0_492_633)">
<path d="M24.8464 7.8002C24.8464 7.8002 24.6045 6.00762 23.8597 5.22051C22.9165 4.18457 21.8621 4.17949 21.3784 4.11855C17.9152 3.85449 12.7157 3.85449 12.7157 3.85449H12.706C12.706 3.85449 7.50643 3.85449 4.04328 4.11855C3.5596 4.17949 2.50518 4.18457 1.562 5.22051C0.817131 6.00762 0.580127 7.8002 0.580127 7.8002C0.580127 7.8002 0.328613 9.90762 0.328613 12.01V13.9803C0.328613 16.0826 0.57529 18.19 0.57529 18.19C0.57529 18.19 0.81713 19.9826 1.55716 20.7697C2.50034 21.8057 3.73856 21.7701 4.28996 21.8818C6.27305 22.0799 12.7108 22.1408 12.7108 22.1408C12.7108 22.1408 17.9152 22.1307 21.3784 21.8717C21.8621 21.8107 22.9165 21.8057 23.8597 20.7697C24.6045 19.9826 24.8464 18.19 24.8464 18.19C24.8464 18.19 25.0931 16.0877 25.0931 13.9803V12.01C25.0931 9.90762 24.8464 7.8002 24.8464 7.8002ZM10.1522 16.3721V9.06465L16.8415 12.7311L10.1522 16.3721Z" fill="#441414"/>
</g>
<defs>
<clipPath id="clip0_492_633">
<rect width="24.7644" height="26" fill="white" transform="translate(0.328613)"/>
</clipPath>
</defs>
</svg>
